<svg width="36" height="47" viewBox="0 0 36 47" fill="none" xmlns="http://www.w3.org/2000/svg">
<path d="M30.9167 15.4583H28.7083V11.0417C28.7083 4.94667 23.7617 0 17.6667 0C11.5717 0 6.625 4.94667 6.625 11.0417V15.4583H4.41667C1.9875 15.4583 0 17.4458 0 19.875V41.9583C0 44.3875 1.9875 46.375 4.41667 46.375H30.9167C33.3458 46.375 35.3333 44.3875 35.3333 41.9583V19.875C35.3333 17.4458 33.3458 15.4583 30.9167 15.4583ZM17.6667 35.3333C15.2375 35.3333 13.25 33.3458 13.25 30.9167C13.25 28.4875 15.2375 26.5 17.6667 26.5C20.0958 26.5 22.0833 28.4875 22.0833 30.9167C22.0833 33.3458 20.0958 35.3333 17.6667 35.3333ZM24.5125 15.4583H10.8208V11.0417C10.8208 7.26542 13.8904 4.19583 17.6667 4.19583C21.4429 4.19583 24.5125 7.26542 24.5125 11.0417V15.4583Z" fill="#58C2FE"/>
</svg>
