<svg width="49" height="49" viewBox="0 0 49 49" fill="none" xmlns="http://www.w3.org/2000/svg">
<path d="M24.1667 0C10.8267 0 0 10.8267 0 24.1667C0 37.5067 10.8267 48.3333 24.1667 48.3333C37.5067 48.3333 48.3333 37.5067 48.3333 24.1667C48.3333 10.8267 37.5067 0 24.1667 0ZM24.1667 7.25C28.1783 7.25 31.4167 10.4883 31.4167 14.5C31.4167 18.5117 28.1783 21.75 24.1667 21.75C20.155 21.75 16.9167 18.5117 16.9167 14.5C16.9167 10.4883 20.155 7.25 24.1667 7.25ZM24.1667 41.5667C18.125 41.5667 12.7842 38.4733 9.66667 33.785C9.73917 28.9758 19.3333 26.3417 24.1667 26.3417C28.9758 26.3417 38.5942 28.9758 38.6667 33.785C35.5492 38.4733 30.2083 41.5667 24.1667 41.5667Z" fill="#58C2FE"/>
</svg>
